<svg width="20" height="20" viewBox="0 0 20 20" fill="none" xmlns="http://www.w3.org/2000/svg">
<path d="M9.6875 11.625C15.035 11.625 19.375 13.6529 19.375 16.1458V19.375H0V16.1458C0 13.6529 4.34 11.625 9.6875 11.625ZM18.0833 16.1458C18.0833 14.3633 14.3246 12.9167 9.6875 12.9167C5.05042 12.9167 1.29167 14.3633 1.29167 16.1458V18.0833H18.0833V16.1458ZM9.6875 0C10.8865 0 12.0364 0.476301 12.8842 1.32412C13.732 2.17194 14.2083 3.32183 14.2083 4.52083C14.2083 5.71983 13.732 6.86972 12.8842 7.71754C12.0364 8.56536 10.8865 9.04167 9.6875 9.04167C8.4885 9.04167 7.33861 8.56536 6.49079 7.71754C5.64297 6.86972 5.16667 5.71983 5.16667 4.52083C5.16667 3.32183 5.64297 2.17194 6.49079 1.32412C7.33861 0.476301 8.4885 0 9.6875 0ZM9.6875 1.29167C8.83107 1.29167 8.00972 1.63188 7.40413 2.23747C6.79855 2.84305 6.45833 3.6644 6.45833 4.52083C6.45833 5.37726 6.79855 6.19861 7.40413 6.8042C8.00972 7.40978 8.83107 7.75 9.6875 7.75C10.5439 7.75 11.3653 7.40978 11.9709 6.8042C12.5765 6.19861 12.9167 5.37726 12.9167 4.52083C12.9167 3.6644 12.5765 2.84305 11.9709 2.23747C11.3653 1.63188 10.5439 1.29167 9.6875 1.29167Z" fill="black"/>
</svg>
