<svg width="35" height="26" viewBox="0 0 35 26" fill="none" xmlns="http://www.w3.org/2000/svg">
<rect x="0.625" y="1.125" width="33.75" height="23.75" rx="2.5" fill="#1F72CD" stroke="#D9D9D9" stroke-width="1.25"/>
<path fill-rule="evenodd" clip-rule="evenodd" d="M5.76307 9.25L2.5 16.9932H6.40635L6.89063 15.7586H7.99757L8.48184 16.9932H12.7816V16.0509L13.1648 16.9932H15.389L15.7721 16.031V16.9932H24.7145L25.8019 15.7907L26.82 16.9932L31.413 17.0031L28.1397 13.1432L31.413 9.25H26.8913L25.8328 10.4303L24.8467 9.25H15.1185L14.2832 11.2486L13.4282 9.25H9.53001V10.1602L9.09636 9.25H5.76307ZM19.1168 10.3495H24.252L25.8226 12.1688L27.4438 10.3495H29.0144L26.628 13.1421L29.0144 15.9025H27.3726L25.802 14.0622L24.1725 15.9025H19.1168V10.3495ZM20.3851 12.5144V11.5001V11.4991H23.5893L24.9874 13.1213L23.5274 14.7522H20.3851V13.6449H23.1866V12.5144H20.3851ZM6.51864 10.3495H8.42278L10.5872 15.6002V10.3495H12.6731L14.3448 14.1143L15.8855 10.3495H17.961V15.9058H16.6981L16.6878 11.552L14.8467 15.9058H13.7169L11.8655 11.552V15.9058H9.26743L8.77489 14.6602H6.11387L5.62235 15.9047H4.23035L6.51864 10.3495ZM6.5686 13.5085L7.4453 11.2895L8.32098 13.5085H6.5686Z" fill="white"/>
</svg>
