<svg width="17" height="21" viewBox="0 0 17 21" fill="none" xmlns="http://www.w3.org/2000/svg">
<path fill-rule="evenodd" clip-rule="evenodd" d="M4.5 5.5V4.5C4.5 3.43913 4.92143 2.42172 5.67157 1.67157C6.42172 0.921427 7.43913 0.5 8.5 0.5C9.56087 0.5 10.5783 0.921427 11.3284 1.67157C12.0786 2.42172 12.5 3.43913 12.5 4.5V5.5H15.5C16.052 5.5 16.5 5.949 16.5 6.507V18.508C16.5 19.608 15.605 20.5 14.506 20.5H2.494C1.9655 20.5 1.45863 20.2902 1.08474 19.9167C0.710846 19.5432 0.50053 19.0365 0.5 18.508V6.508C0.5 5.95 0.945 5.5 1.5 5.5H4.5ZM5.7 5.5H11.3V4.5C11.3 3.75739 11.005 3.0452 10.4799 2.5201C9.9548 1.995 9.24261 1.7 8.5 1.7C7.75739 1.7 7.0452 1.995 6.5201 2.5201C5.995 3.0452 5.7 3.75739 5.7 4.5V5.5ZM4.5 6.7H1.7V18.508C1.7 18.944 2.056 19.3 2.494 19.3H14.506C14.7162 19.3 14.9179 19.2166 15.0667 19.0681C15.2156 18.9197 15.2995 18.7182 15.3 18.508V6.7H12.5V9.5H11.3V6.7H5.7V9.5H4.5V6.7Z" fill="white"/>
</svg>
