<svg width="27" height="28" viewBox="0 0 27 28" fill="none" xmlns="http://www.w3.org/2000/svg">
<path d="M2.25 19.625V23H11.25V20.8738H4.3875V19.625C4.3875 18.905 7.90875 17.2625 11.25 17.2625C12.33 17.2737 13.3988 17.42 14.4338 17.69L16.1438 15.98C14.5688 15.4513 12.9375 15.1587 11.25 15.125C8.24625 15.125 2.25 16.6213 2.25 19.625ZM11.25 5C8.76375 5 6.75 7.01375 6.75 9.5C6.75 11.9862 8.76375 14 11.25 14C13.7362 14 15.75 11.9862 15.75 9.5C15.75 7.01375 13.7362 5 11.25 5ZM11.25 11.75C10.0125 11.75 9 10.7488 9 9.5C9 8.25125 10.0125 7.25 11.25 7.25C12.4875 7.25 13.5 8.2625 13.5 9.5C13.5 10.7375 12.4987 11.75 11.25 11.75ZM24.4125 15.5188L23.2875 16.6438L20.9812 14.3938L22.1062 13.2688C22.2219 13.1554 22.3774 13.0919 22.5394 13.0919C22.7013 13.0919 22.8568 13.1554 22.9725 13.2688L24.4125 14.7087C24.6488 14.945 24.6488 15.3387 24.4125 15.575M13.5 21.8075L20.3175 14.99L22.6238 17.24L15.8737 24.0688H13.5V21.8075Z" fill="black"/>
</svg>
