<svg width="24" height="24" viewBox="0 0 24 24" fill="none" xmlns="http://www.w3.org/2000/svg">
<path d="M23.5029 11.7557C23.5029 17.6929 19.1032 22.6013 13.3876 23.3978C12.8532 23.4719 12.3064 23.5106 11.7514 23.5106C11.1108 23.5106 10.4817 23.4596 9.86904 23.3607C4.2737 22.4596 0 17.6064 0 11.7557C0 5.26339 5.26184 0 11.7523 0C18.2427 0 23.5045 5.26339 23.5045 11.7557H23.5029Z" fill="black"/>
<path d="M13.3876 9.43948V12.0003H16.5546L16.0531 15.45H13.3876V23.3978C12.8532 23.4719 12.3064 23.5106 11.7514 23.5106C11.1108 23.5106 10.4817 23.4595 9.86902 23.3607V15.45H6.94824V12.0003H9.86902V8.86702C9.86902 6.92311 11.4443 5.34656 13.3884 5.34656V5.34821C13.3942 5.34821 13.3991 5.34656 13.4049 5.34656H16.5554V8.32997H14.4968C13.885 8.32997 13.3884 8.82666 13.3884 9.43866L13.3876 9.43948Z" fill="white"/>
</svg>
