<svg width="18" height="18" viewBox="0 0 18 18" fill="none" xmlns="http://www.w3.org/2000/svg">
<path d="M2 18C1.45 18 0.979 17.8043 0.587 17.413C0.195667 17.021 0 16.55 0 16V2C0 1.45 0.195667 0.979 0.587 0.587C0.979 0.195667 1.45 0 2 0H16C16.55 0 17.021 0.195667 17.413 0.587C17.8043 0.979 18 1.45 18 2V16C18 16.55 17.8043 17.021 17.413 17.413C17.021 17.8043 16.55 18 16 18H2ZM9 13C9.65 13 10.2293 12.8127 10.738 12.438C11.246 12.0627 11.6 11.5833 11.8 11H16V2H2V11H6.2C6.4 11.5833 6.754 12.0627 7.262 12.438C7.77067 12.8127 8.35 13 9 13ZM2 13V16H16V13H12.975C12.4917 13.6667 11.9083 14.1667 11.225 14.5C10.5417 14.8333 9.8 15 9 15C8.2 15 7.45833 14.8333 6.775 14.5C6.09167 14.1667 5.50833 13.6667 5.025 13H2Z" fill="black"/>
</svg>
