<svg width="25" height="24" viewBox="0 0 25 24" fill="none" xmlns="http://www.w3.org/2000/svg">
<path d="M12.4134 0.000854492H12.3599C5.88427 0.000854492 0.634766 5.25191 0.634766 11.7294V11.7829C0.634766 18.2604 5.88427 23.5115 12.3599 23.5115H12.4134C18.889 23.5115 24.1385 18.2604 24.1385 11.7829V11.7294C24.1385 5.25191 18.889 0.000854492 12.4134 0.000854492Z" fill="black"/>
<path d="M16.0229 4.78394H8.75021C6.74099 4.78394 5.10645 6.41896 5.10645 8.42877V15.0842C5.10645 17.094 6.74099 18.729 8.75021 18.729H16.0229C18.0321 18.729 19.6667 17.094 19.6667 15.0842V8.42877C19.6667 6.41896 18.0321 4.78394 16.0229 4.78394ZM6.39185 8.42877C6.39185 7.12816 7.44998 6.06972 8.75021 6.06972H16.0229C17.3231 6.06972 18.3813 7.12816 18.3813 8.42877V15.0842C18.3813 16.3848 17.3231 17.4433 16.0229 17.4433H8.75021C7.44998 17.4433 6.39185 16.3848 6.39185 15.0842V8.42877Z" fill="white"/>
<path d="M12.3869 15.146C14.2553 15.146 15.7762 13.6254 15.7762 11.7557C15.7762 9.88589 14.2561 8.36536 12.3869 8.36536C10.5176 8.36536 8.99756 9.88589 8.99756 11.7557C8.99756 13.6254 10.5176 15.146 12.3869 15.146ZM12.3869 9.65196C13.5471 9.65196 14.4908 10.5959 14.4908 11.7565C14.4908 12.9171 13.5471 13.861 12.3869 13.861C11.2266 13.861 10.283 12.9171 10.283 11.7565C10.283 10.5959 11.2266 9.65196 12.3869 9.65196Z" fill="white"/>
<path d="M16.09 8.91313C16.5931 8.91313 17.0032 8.50376 17.0032 7.99966C17.0032 7.49556 16.5939 7.08618 16.09 7.08618C15.586 7.08618 15.1768 7.49556 15.1768 7.99966C15.1768 8.50376 15.586 8.91313 16.09 8.91313Z" fill="white"/>
</svg>
