<svg width="24" height="24" viewBox="0 0 24 24" fill="none" xmlns="http://www.w3.org/2000/svg">
<path d="M12.2747 0.356934H12.2212C5.74561 0.356934 0.496094 5.60798 0.496094 12.0855V12.139C0.496094 18.6165 5.74561 23.8676 12.2212 23.8676H12.2747C18.7503 23.8676 23.9998 18.6165 23.9998 12.139V12.0855C23.9998 5.60798 18.7503 0.356934 12.2747 0.356934Z" fill="black"/>
<path d="M6.10178 8.17129C5.79216 7.88382 5.63818 7.52799 5.63818 7.10461C5.63818 6.68124 5.79298 6.30975 6.10178 6.02146C6.41139 5.73399 6.80994 5.58984 7.29825 5.58984C7.78656 5.58984 8.16947 5.73399 8.47826 6.02146C8.78788 6.30893 8.94185 6.67053 8.94185 7.10461C8.94185 7.5387 8.78705 7.88382 8.47826 8.17129C8.16864 8.45876 7.77585 8.6029 7.29825 8.6029C6.82065 8.6029 6.41139 8.45876 6.10178 8.17129ZM8.68165 9.82032V18.6338H5.89756V9.82032H8.68165Z" fill="#FEFFFC"/>
<path d="M17.9493 10.6909C18.5562 11.3499 18.8593 12.2543 18.8593 13.4058V18.4781H16.2152V13.7633C16.2152 13.1826 16.0645 12.7312 15.7639 12.41C15.4634 12.0887 15.0582 11.9273 14.551 11.9273C14.0437 11.9273 13.6386 12.0879 13.338 12.41C13.0375 12.7312 12.8868 13.1826 12.8868 13.7633V18.4781H10.2271V9.79559H12.8868V10.9471C13.156 10.5633 13.5192 10.2602 13.9754 10.0369C14.4316 9.81372 14.9446 9.70251 15.5152 9.70251C16.5314 9.70251 17.3433 10.032 17.9493 10.6901V10.6909Z" fill="#FEFFFC"/>
</svg>
