<svg width="37" height="26" viewBox="0 0 37 26" fill="none" xmlns="http://www.w3.org/2000/svg">
<rect x="0.625" y="1.125" width="35" height="23.75" rx="2.5" fill="white" stroke="#D9D9D9" stroke-width="1.25"/>
<path fill-rule="evenodd" clip-rule="evenodd" d="M18.059 19.1015C16.6758 20.2519 14.8816 20.9464 12.921 20.9464C8.54636 20.9464 5 17.4886 5 13.2232C5 8.95781 8.54636 5.5 12.921 5.5C14.8816 5.5 16.6758 6.19451 18.059 7.34496C19.4421 6.19451 21.2363 5.5 23.1969 5.5C27.5715 5.5 31.1179 8.95781 31.1179 13.2232C31.1179 17.4886 27.5715 20.9464 23.1969 20.9464C21.2363 20.9464 19.4421 20.2519 18.059 19.1015Z" fill="#ED0006"/>
<path fill-rule="evenodd" clip-rule="evenodd" d="M18.0591 19.1015C19.7622 17.6849 20.8422 15.577 20.8422 13.2232C20.8422 10.8694 19.7622 8.76154 18.0591 7.34496C19.4423 6.19451 21.2365 5.5 23.197 5.5C27.5717 5.5 31.118 8.95781 31.118 13.2232C31.118 17.4886 27.5717 20.9464 23.197 20.9464C21.2365 20.9464 19.4423 20.2519 18.0591 19.1015Z" fill="#F9A000"/>
<path fill-rule="evenodd" clip-rule="evenodd" d="M18.059 19.1013C19.7621 17.6847 20.842 15.5768 20.842 13.223C20.842 10.8692 19.7621 8.76131 18.059 7.34473C16.3558 8.76131 15.2759 10.8692 15.2759 13.223C15.2759 15.5768 16.3558 17.6847 18.059 19.1013Z" fill="#FF5E00"/>
</svg>
