<svg width="24" height="24" viewBox="0 0 24 24" fill="none" xmlns="http://www.w3.org/2000/svg">
<path d="M3.99999 20V7.1L2.04999 2.85L3.84999 2L6.19999 7.05H17.8L20.15 2L21.95 2.85L20 7.1V20H3.99999ZM9.99999 13H14C14.2833 13 14.5208 12.9042 14.7125 12.7125C14.9042 12.5208 15 12.2833 15 12C15 11.7167 14.9042 11.4792 14.7125 11.2875C14.5208 11.0958 14.2833 11 14 11H9.99999C9.71665 11 9.47915 11.0958 9.28749 11.2875C9.09582 11.4792 8.99999 11.7167 8.99999 12C8.99999 12.2833 9.09582 12.5208 9.28749 12.7125C9.47915 12.9042 9.71665 13 9.99999 13ZM5.99999 18H18V9.05H5.99999V18Z" fill="black"/>
</svg>
