<svg width="24" height="24" viewBox="0 0 24 24" fill="none" xmlns="http://www.w3.org/2000/svg">
<path d="M12.0482 0.000854492H11.9946C5.51904 0.000854492 0.269531 5.2519 0.269531 11.7294V11.7829C0.269531 18.2604 5.51904 23.5115 11.9946 23.5115H12.0482C18.5237 23.5115 23.7732 18.2604 23.7732 11.7829V11.7294C23.7732 5.2519 18.5237 0.000854492 12.0482 0.000854492Z" fill="black"/>
<path d="M17.7031 8.5062V10.726C17.3153 10.6882 16.8113 10.6 16.2538 10.3957C15.5259 10.1289 14.9841 9.76397 14.6292 9.48144V13.9681L14.6201 13.9541C14.6259 14.043 14.6292 14.1337 14.6292 14.2251C14.6292 16.4532 12.8168 18.2669 10.5885 18.2669C8.36026 18.2669 6.54785 16.4532 6.54785 14.2251C6.54785 11.997 8.36026 10.1824 10.5885 10.1824C10.8067 10.1824 11.0208 10.1997 11.23 10.2335V12.4212C11.0291 12.3495 10.8133 12.3108 10.5885 12.3108C9.53368 12.3108 8.67482 13.1691 8.67482 14.2251C8.67482 15.2811 9.53368 16.1393 10.5885 16.1393C11.6434 16.1393 12.5022 15.2802 12.5022 14.2251C12.5022 14.1856 12.5014 14.146 12.4989 14.1065V5.3877H14.7165C14.7247 5.5755 14.7321 5.76495 14.7404 5.95275C14.7552 6.32259 14.8869 6.6776 15.1167 6.96836C15.3859 7.31019 15.7837 7.70721 16.342 8.02433C16.8648 8.32004 17.3556 8.44771 17.7031 8.50784V8.5062Z" fill="white"/>
</svg>
