<svg width="37" height="26" viewBox="0 0 37 26" fill="none" xmlns="http://www.w3.org/2000/svg">
<rect x="1.375" y="1.125" width="35" height="23.75" rx="2.5" fill="white" stroke="#D9D9D9" stroke-width="1.25"/>
<path d="M11.9642 5.71094H17.677C18.4745 5.71094 18.9704 6.36466 18.7844 7.16936L16.1247 18.6541C15.937 19.456 15.1386 20.1103 14.3406 20.1103H8.62837C7.83203 20.1103 7.33493 19.456 7.52096 18.6541L10.1818 7.16936C10.3678 6.36466 11.1658 5.71094 11.9642 5.71094Z" fill="#E21836"/>
<path d="M17.2012 5.7085H23.7707C24.568 5.7085 24.2085 6.36222 24.0209 7.16692L21.3617 18.6517C21.1751 19.4536 21.2333 20.1079 20.4343 20.1079H13.8648C13.0658 20.1079 12.5713 19.4536 12.759 18.6517L15.4182 7.16692C15.607 6.36222 16.4033 5.7085 17.2012 5.7085Z" fill="#00447C"/>
<path d="M23.51 5.7085H29.2228C30.0213 5.7085 30.5173 6.36222 30.3298 7.16692L27.6705 18.6517C27.4828 19.4536 26.6838 20.1079 25.8854 20.1079H20.1752C19.3763 20.1079 18.8807 19.4536 19.0678 18.6517L21.7275 7.16692C21.9136 6.36222 22.711 5.7085 23.51 5.7085Z" fill="#007B84"/>
<path d="M13.4559 9.38893C12.8685 9.39495 12.695 9.38893 12.6395 9.37577C12.6182 9.47758 12.2218 11.3168 12.2207 11.3183C12.1353 11.6904 12.0732 11.9557 11.8623 12.1269C11.7425 12.2265 11.6027 12.2745 11.4407 12.2745C11.1801 12.2745 11.0283 12.1444 11.0029 11.8977L10.998 11.813C10.998 11.813 11.0774 11.3145 11.0774 11.3117C11.0774 11.3117 11.4934 9.63569 11.5679 9.41414C11.5718 9.40153 11.5729 9.39495 11.5739 9.38893C10.7641 9.39607 10.6205 9.38893 10.6106 9.37577C10.6052 9.39383 10.5851 9.49775 10.5851 9.49775L10.1603 11.3868L10.1238 11.547L10.0532 12.0711C10.0532 12.2265 10.0836 12.3534 10.144 12.4607C10.3376 12.8008 10.8897 12.8518 11.202 12.8518C11.6044 12.8518 11.9819 12.7658 12.237 12.6088C12.6798 12.3457 12.7956 11.9344 12.899 11.5689L12.9469 11.3813C12.9469 11.3813 13.3754 9.64059 13.4483 9.41414C13.4511 9.40153 13.4522 9.39495 13.4559 9.38893ZM14.9142 10.7932C14.8109 10.7932 14.6221 10.8184 14.4525 10.902C14.3909 10.9338 14.3327 10.9705 14.2713 11.0071L14.3267 10.8058L14.2964 10.7719C13.9367 10.8452 13.8562 10.855 13.524 10.902L13.4961 10.9207C13.4576 11.2423 13.4233 11.4842 13.2803 12.1165C13.2259 12.3495 13.1693 12.5848 13.1127 12.8173L13.128 12.8468C13.4684 12.8288 13.5717 12.8288 13.8676 12.8337L13.8916 12.8075C13.9292 12.6138 13.9341 12.5684 14.0173 12.1761C14.0564 11.9902 14.138 11.5815 14.1783 11.436C14.2522 11.4016 14.3252 11.3677 14.3948 11.3677C14.5607 11.3677 14.5405 11.5132 14.5341 11.5712C14.527 11.6685 14.4665 11.9864 14.4046 12.2593L14.3632 12.4355C14.3344 12.5656 14.3028 12.6921 14.2739 12.8211L14.2865 12.8468C14.6221 12.8288 14.7244 12.8288 15.011 12.8337L15.0447 12.8075C15.0965 12.505 15.1116 12.424 15.2035 11.9836L15.2498 11.7812C15.3396 11.3852 15.3847 11.1844 15.3167 11.0208C15.2449 10.8375 15.0725 10.7932 14.9142 10.7932ZM16.5432 11.2079C16.3649 11.2423 16.2511 11.2653 16.138 11.2801C16.0259 11.2982 15.9166 11.3146 15.7443 11.3387L15.7306 11.3511L15.7181 11.3611C15.7001 11.4902 15.6876 11.6018 15.6638 11.733C15.6436 11.8687 15.6125 12.0229 15.562 12.2445C15.5229 12.4141 15.5027 12.4732 15.4804 12.5328C15.4587 12.5925 15.4347 12.6505 15.3907 12.8173L15.401 12.8327L15.4097 12.8468C15.5708 12.8391 15.6762 12.8336 15.7845 12.8327C15.8927 12.8287 16.0048 12.8327 16.1783 12.8336L16.1935 12.8212L16.2097 12.8075C16.2348 12.657 16.2386 12.6166 16.2539 12.5432C16.2691 12.4645 16.2952 12.3555 16.3594 12.0645C16.3898 11.9278 16.4236 11.7916 16.4551 11.6521C16.4878 11.5132 16.5221 11.3763 16.5547 11.2397L16.5498 11.2231L16.5432 11.2079ZM16.547 10.6488C16.385 10.5526 16.1005 10.5831 15.909 10.716C15.7181 10.8462 15.6964 11.0311 15.8579 11.1286C16.0172 11.2221 16.3028 11.1943 16.4926 11.0602C16.6831 10.9272 16.7069 10.744 16.547 10.6488ZM17.5272 12.877C17.8552 12.877 18.1913 12.7861 18.4443 12.5163C18.639 12.2976 18.7282 11.9721 18.7591 11.8381C18.8598 11.3939 18.7814 11.1865 18.683 11.0602C18.5334 10.8676 18.2691 10.8058 17.995 10.8058C17.8301 10.8058 17.4374 10.8222 17.1307 11.1067C16.9104 11.3118 16.8086 11.5902 16.7472 11.8572C16.6852 12.1291 16.6139 12.6187 17.0616 12.8009C17.1997 12.8606 17.3989 12.877 17.5272 12.877ZM17.5016 11.8775C17.5772 11.5411 17.6665 11.2587 17.8943 11.2587C18.0728 11.2587 18.0858 11.4688 18.0064 11.8063C17.9922 11.8812 17.927 12.1598 17.8389 12.2784C17.7773 12.3659 17.7045 12.419 17.624 12.419C17.6001 12.419 17.4576 12.419 17.4554 12.2063C17.4543 12.1013 17.4756 11.994 17.5016 11.8775ZM19.5789 12.8337L19.6045 12.8075C19.6408 12.6138 19.6468 12.5683 19.7273 12.1762C19.7675 11.9902 19.8508 11.5816 19.8899 11.4361C19.964 11.4015 20.0357 11.3676 20.1076 11.3676C20.2723 11.3676 20.2523 11.5131 20.2457 11.5711C20.2397 11.6685 20.1793 11.9863 20.1162 12.2592L20.0771 12.4354C20.0471 12.5657 20.0146 12.692 19.9857 12.8211L19.9983 12.8469C20.335 12.8288 20.4334 12.8288 20.7216 12.8337L20.7565 12.8075C20.807 12.5049 20.8206 12.4239 20.9153 11.9836L20.9604 11.7811C21.0507 11.3851 21.0964 11.1844 21.0295 11.0208C20.9556 10.8375 20.7821 10.7933 20.626 10.7933C20.5225 10.7933 20.3327 10.8183 20.1641 10.9021C20.1038 10.9339 20.0434 10.9704 19.9841 11.0071L20.0357 10.8059L20.008 10.7718C19.6485 10.8452 19.5663 10.855 19.2345 10.9021L19.209 10.9207C19.1688 11.2424 19.1361 11.4841 18.9931 12.1165C18.9386 12.3496 18.8821 12.5848 18.8256 12.8173L18.8407 12.8469C19.1817 12.8288 19.2835 12.8288 19.5789 12.8337ZM22.0526 12.8468C22.0738 12.7429 22.1995 12.127 22.2006 12.127C22.2006 12.127 22.3077 11.675 22.3142 11.6587C22.3142 11.6587 22.3479 11.6116 22.3816 11.593H22.4312C22.8989 11.593 23.4271 11.593 23.8411 11.2867C24.1228 11.0766 24.3153 10.7664 24.4012 10.3894C24.4235 10.297 24.4399 10.1871 24.4399 10.0771C24.4399 9.93275 24.4111 9.78991 24.3279 9.67829C24.1168 9.38126 23.6964 9.37579 23.2111 9.37355C23.2096 9.37355 22.9719 9.37579 22.9719 9.37579C22.3507 9.3835 22.1016 9.38126 21.9993 9.36865C21.9906 9.41417 21.9744 9.49511 21.9744 9.49511C21.9744 9.49511 21.7518 10.5323 21.7518 10.534C21.7518 10.534 21.2194 12.7391 21.1943 12.843C21.7367 12.8364 21.959 12.8364 22.0526 12.8468ZM22.4649 11.0044C22.4649 11.0044 22.7015 9.9693 22.7004 9.97322L22.708 9.92015L22.7114 9.87967L22.8059 9.88948C22.8059 9.88948 23.2938 9.93163 23.3052 9.93275C23.4978 10.0077 23.5772 10.2008 23.5218 10.4529C23.4712 10.6832 23.3227 10.8769 23.1318 10.9705C22.9745 11.0497 22.782 11.0563 22.5835 11.0563H22.4552L22.4649 11.0044ZM23.9379 11.8966C23.8754 12.1647 23.8035 12.6543 24.249 12.8288C24.391 12.8895 24.5183 12.9076 24.6476 12.901C24.7842 12.8936 24.9108 12.8247 25.028 12.7256C25.0175 12.7663 25.0069 12.8071 24.9963 12.848L25.0165 12.8741C25.3369 12.8606 25.4363 12.8606 25.7834 12.8632L25.8149 12.8391C25.8656 12.5394 25.9133 12.2484 26.0451 11.6751C26.1093 11.4005 26.1733 11.1285 26.2392 10.855L26.2289 10.8249C25.8705 10.8917 25.7747 10.906 25.4299 10.9551L25.4037 10.9765C25.4002 11.0044 25.3966 11.0312 25.3933 11.0579C25.3397 10.9708 25.262 10.8964 25.1421 10.8501C24.9888 10.7894 24.6287 10.8676 24.3191 11.151C24.1016 11.3534 23.9972 11.6307 23.9379 11.8966ZM24.6906 11.913C24.7674 11.5827 24.8555 11.3031 25.0839 11.3031C25.2283 11.3031 25.3043 11.4371 25.2888 11.6657C25.2766 11.7227 25.2634 11.7828 25.2476 11.8507C25.2248 11.9489 25.2 12.0462 25.1759 12.1437C25.1514 12.2103 25.1229 12.2732 25.0915 12.3151C25.0328 12.3988 24.893 12.4508 24.8125 12.4508C24.7896 12.4508 24.6487 12.4508 24.6439 12.2418C24.6427 12.1378 24.664 12.0307 24.6906 11.913ZM28.6216 10.8222L28.5939 10.7904C28.2392 10.8627 28.175 10.8742 27.8492 10.9184L27.8252 10.9425C27.8241 10.9464 27.8231 10.9524 27.8215 10.9579L27.8204 10.9524C27.5778 11.5153 27.5849 11.3939 27.3875 11.837C27.3863 11.8168 27.3863 11.8042 27.3852 11.7828L27.3358 10.8222L27.3047 10.7904C26.9332 10.8627 26.9245 10.8742 26.5814 10.9184L26.5546 10.9425C26.5509 10.954 26.5509 10.9666 26.5486 10.9803L26.5509 10.9852C26.5938 11.2056 26.5835 11.1565 26.6265 11.5044C26.6465 11.6751 26.6733 11.8468 26.6933 12.0154C26.7272 12.2976 26.7461 12.4365 26.7875 12.8671C26.5557 13.2517 26.5009 13.3972 26.2778 13.7347L26.2794 13.7381L26.1223 13.9879C26.1043 14.0142 26.088 14.0323 26.0652 14.04C26.0401 14.0525 26.0075 14.0547 25.9623 14.0547H25.8753L25.7459 14.4874L26.1897 14.4951C26.4502 14.494 26.614 14.3715 26.7021 14.2068L26.9811 13.7259H26.9767L27.0061 13.692C27.1938 13.2856 28.6216 10.8222 28.6216 10.8222ZM23.9379 16.5055H23.7496L24.4464 14.1877H24.6775L24.7509 13.9489L24.758 14.2144C24.7494 14.3786 24.8778 14.5241 25.215 14.5H25.605L25.7393 14.0537H25.5925C25.5081 14.0537 25.469 14.0322 25.4739 13.9863L25.4668 13.7161H24.7445V13.7175C24.511 13.7224 23.8137 13.7401 23.6725 13.7779C23.5016 13.8222 23.3216 13.9524 23.3216 13.9524L23.3923 13.7133H22.7167L22.5759 14.1877L21.8698 16.541H21.7328L21.5984 16.9841H22.9441L22.899 17.1318H23.5621L23.6061 16.9841H23.7921L23.9379 16.5055ZM23.3858 14.6586C23.2776 14.6888 23.0762 14.7801 23.0762 14.7801L23.2553 14.1877H23.7921L23.6626 14.6193C23.6626 14.6193 23.4968 14.6291 23.3858 14.6586ZM23.3961 15.5049C23.3961 15.5049 23.2275 15.5262 23.1165 15.5514C23.0072 15.5848 22.8022 15.6898 22.8022 15.6898L22.9871 15.0733H23.5267L23.3961 15.5049ZM23.0953 16.511H22.5569L22.7129 15.9907H23.2497L23.0953 16.511ZM24.392 15.0733H25.1682L25.0566 15.4366H24.2702L24.1521 15.8338H24.8403L24.3192 16.5717C24.2827 16.6258 24.25 16.645 24.2137 16.6603C24.1772 16.6789 24.1293 16.7008 24.0739 16.7008H23.883L23.7518 17.1357H24.2511C24.5107 17.1357 24.664 17.017 24.7772 16.8611L25.1345 16.3693L25.2112 16.8687C25.2275 16.9622 25.2943 17.017 25.3396 17.0383C25.3896 17.0635 25.4412 17.1068 25.5142 17.1132C25.5925 17.1166 25.649 17.1192 25.6866 17.1192H25.9319L26.0793 16.6324H25.9825C25.9269 16.6324 25.8313 16.623 25.815 16.6055C25.7987 16.5843 25.7987 16.5515 25.7899 16.5016L25.7121 16.0011H25.3933L25.5331 15.8338H26.3181L26.4388 15.4366H25.7121L25.8253 15.0733H26.5498L26.6841 14.6253H24.5242L24.392 15.0733ZM17.8367 16.6122L18.0178 16.0061H18.7624L18.8984 15.5553H18.1532L18.2669 15.1822H18.9952L19.1301 14.7457H17.308L17.1758 15.1822H17.5898L17.4794 15.5553H17.0643L16.9267 16.0138H17.3405L17.0991 16.8156C17.0665 16.9218 17.1144 16.9623 17.1448 17.0116C17.1758 17.0596 17.2073 17.0914 17.278 17.1095C17.351 17.1258 17.401 17.1357 17.4689 17.1357H18.3083L18.4578 16.6363L18.0858 16.6876C18.0139 16.6876 17.815 16.679 17.8367 16.6122ZM17.9221 13.7106L17.7334 14.0536C17.693 14.1285 17.6567 14.175 17.624 14.1964C17.5951 14.2145 17.538 14.2221 17.4553 14.2221H17.3569L17.2253 14.6608H17.5522C17.7094 14.6608 17.8302 14.6028 17.8878 14.5738C17.9498 14.5405 17.9661 14.5596 18.014 14.5131L18.1244 14.4169H19.1453L19.2808 13.96H18.5335L18.664 13.7106H17.9221ZM19.4293 16.621C19.4119 16.5958 19.4244 16.5514 19.451 16.4589L19.7301 15.53H20.7227C20.8674 15.5279 20.9719 15.5262 21.0398 15.5213C21.1128 15.5136 21.1921 15.4875 21.2786 15.4404C21.3679 15.3911 21.4135 15.3391 21.4521 15.2795C21.4951 15.22 21.5642 15.0897 21.6235 14.8889L21.9743 13.7134L20.9441 13.7194C20.9441 13.7194 20.6269 13.7665 20.4873 13.8184C20.3464 13.8764 20.145 14.0383 20.145 14.0383L20.238 13.716H19.6017L18.7108 16.6876C18.6792 16.803 18.658 16.8868 18.6532 16.9371C18.6515 16.9913 18.7211 17.0449 18.7662 17.0854C18.8196 17.1258 18.8984 17.1193 18.974 17.1258C19.0535 17.1319 19.1666 17.1356 19.3226 17.1356H19.8117L19.9618 16.6259L19.524 16.6675C19.4772 16.6675 19.4434 16.6423 19.4293 16.621ZM19.9101 14.9026H20.9528L20.8865 15.1116C20.8772 15.1165 20.8549 15.1012 20.7488 15.1138H19.8459L19.9101 14.9026ZM20.119 14.2018H21.1704L21.0948 14.4535C21.0948 14.4535 20.5992 14.4486 20.5199 14.4633C20.1706 14.5241 19.9667 14.7117 19.9667 14.7117L20.119 14.2018ZM20.9098 15.8113C20.9012 15.8425 20.8876 15.8616 20.8685 15.8758C20.8473 15.8896 20.8131 15.8945 20.762 15.8945H20.6134L20.6222 15.64H20.0042L19.9791 16.884C19.9782 16.9738 19.9868 17.0257 20.0521 17.0673C20.1174 17.1193 20.3186 17.1259 20.5894 17.1259H20.9767L21.1165 16.6602L20.7794 16.6789L20.6673 16.6854C20.652 16.6789 20.6373 16.6728 20.621 16.6564C20.6068 16.6423 20.5829 16.651 20.5868 16.5612L20.5894 16.2423L20.943 16.2276C21.1339 16.2276 21.2155 16.1652 21.2851 16.1057C21.3515 16.0487 21.3732 15.9831 21.3983 15.8945L21.4576 15.6121H20.9718L20.9098 15.8113Z" fill="#FEFEFE"/>
</svg>
