<svg width="36" height="26" viewBox="0 0 36 26" fill="none" xmlns="http://www.w3.org/2000/svg">
<rect x="0.875" y="1.125" width="33.75" height="23.75" rx="2.5" fill="#00425F" stroke="#D9D9D9" stroke-width="1.25"/>
<path d="M8.70095 17.4019C11.2972 17.4019 13.4019 15.2972 13.4019 12.7009C13.4019 10.1047 11.2972 8 8.70095 8C6.10469 8 4 10.1047 4 12.7009C4 15.2972 6.10469 17.4019 8.70095 17.4019Z" fill="#EE312A"/>
<path d="M8.70036 14.7066C7.64946 12.3244 6.87879 10.0991 6.87879 10.0991H5.26758C5.26758 10.0991 6.24825 12.9554 8.06982 16.5274H9.33091C11.1525 12.9554 12.1332 10.0991 12.1332 10.0991H10.5219C10.5219 10.0991 9.75127 12.3244 8.70036 14.7066Z" fill="white"/>
<path d="M31.1612 14.4086H28.0215C28.0215 14.4086 28.0912 15.4637 29.4867 15.4637C30.1844 15.4637 30.8821 15.2525 30.8821 15.2525L31.0217 16.3776C31.0217 16.3776 30.3239 16.6589 29.3471 16.6589C27.9517 16.6589 26.6958 15.9557 26.6958 13.9867C26.6958 12.4396 27.6726 11.4551 29.068 11.4551C31.1612 11.4551 31.3008 13.5647 31.1612 14.4086ZM28.9983 12.4396C28.0912 12.4396 28.0215 13.4241 28.0215 13.4241H29.9751C29.9751 13.4241 29.9053 12.4396 28.9983 12.4396Z" fill="white"/>
<path d="M20.3202 12.7502L20.5295 11.631C20.5295 11.631 18.9133 11.1392 17.5996 12.0507V16.5275H18.9949L18.9948 12.8901C19.5528 12.4704 20.3202 12.7502 20.3202 12.7502Z" fill="white"/>
<path d="M16.5118 14.4086H13.3721C13.3721 14.4086 13.4418 15.4637 14.8373 15.4637C15.535 15.4637 16.2327 15.2525 16.2327 15.2525L16.3722 16.3776C16.3722 16.3776 15.6745 16.6589 14.6977 16.6589C13.3023 16.6589 12.0464 15.9557 12.0464 13.9867C12.0464 12.4396 13.0232 11.4551 14.4187 11.4551C16.5118 11.4551 16.6513 13.5647 16.5118 14.4086ZM14.3488 12.4396C13.4418 12.4396 13.3721 13.4241 13.3721 13.4241H15.3257C15.3257 13.4241 15.2559 12.4396 14.3488 12.4396Z" fill="white"/>
<path d="M23.7218 14.8484C23.2868 13.7902 22.9359 12.6993 22.6723 11.5859L21.2729 11.5861C21.2729 11.5861 21.9726 14.2883 23.1622 16.5274H24.2814C25.471 14.2883 26.1707 11.5866 26.1707 11.5866H24.7714C24.5077 12.6998 24.1568 13.7904 23.7218 14.8484Z" fill="white"/>
</svg>
