<svg width="35" height="26" viewBox="0 0 35 26" fill="none" xmlns="http://www.w3.org/2000/svg">
<rect x="0.625" y="1.125" width="33.75" height="23.75" rx="2.5" fill="white" stroke="#D9D9D9" stroke-width="1.25"/>
<path fill-rule="evenodd" clip-rule="evenodd" d="M11.1253 17.3315H9.00494L7.41495 11.0129C7.33949 10.7222 7.17925 10.4653 6.94354 10.3442C6.35531 10.0398 5.70712 9.79762 5 9.67546V9.43219H8.41567C8.88708 9.43219 9.24064 9.79762 9.29957 10.222L10.1245 14.7798L12.2438 9.43219H14.3052L11.1253 17.3315ZM15.4839 17.3315H13.4814L15.1304 9.43219H17.1328L15.4839 17.3315ZM19.7234 11.6205C19.7824 11.1951 20.1359 10.9518 20.5484 10.9518C21.1966 10.8907 21.9027 11.0129 22.4919 11.3162L22.8455 9.61543C22.2562 9.37216 21.608 9.25 21.0198 9.25C19.0763 9.25 17.662 10.3442 17.662 11.8627C17.662 13.018 18.6638 13.6246 19.3709 13.99C20.1359 14.3544 20.4306 14.5977 20.3716 14.962C20.3716 15.5086 19.7824 15.7519 19.1941 15.7519C18.487 15.7519 17.7799 15.5697 17.1327 15.2653L16.7792 16.9671C17.4863 17.2704 18.2513 17.3926 18.9584 17.3926C21.1377 17.4526 22.4919 16.3595 22.4919 14.7188C22.4919 12.6526 19.7234 12.5315 19.7234 11.6205ZM29.4999 17.3315L27.9099 9.43219H26.2021C25.8485 9.43219 25.495 9.67546 25.3771 10.0398L22.4329 17.3315H24.4943L24.9057 16.1773H27.4385L27.6742 17.3315H29.4999ZM26.4971 11.5596L27.0853 14.5367H25.4364L26.4971 11.5596Z" fill="#172B85"/>
</svg>
