<svg width="25" height="25" viewBox="0 0 25 25" fill="none" xmlns="http://www.w3.org/2000/svg">
<path d="M2.5 12.5C2.5 8.729 2.5 6.843 3.672 5.672C4.844 4.501 6.729 4.5 10.5 4.5H14.5C18.271 4.5 20.157 4.5 21.328 5.672C22.499 6.844 22.5 8.729 22.5 12.5C22.5 16.271 22.5 18.157 21.328 19.328C20.156 20.499 18.271 20.5 14.5 20.5H10.5C6.729 20.5 4.843 20.5 3.672 19.328C2.501 18.156 2.5 16.271 2.5 12.5Z" stroke="black" stroke-width="1.5"/>
<path d="M10.5 16.5H6.5M14.5 16.5H13M2.5 10.5H22.5" stroke="black" stroke-width="1.5" stroke-linecap="round"/>
</svg>
