<svg width="25" height="24" viewBox="0 0 25 24" fill="none" xmlns="http://www.w3.org/2000/svg">
<path d="M24.4091 11.7557C24.4091 17.6929 20.0094 22.6013 14.2939 23.3978C13.7595 23.4719 13.2127 23.5106 12.6577 23.5106C12.017 23.5106 11.3879 23.4596 10.7753 23.3607C5.17995 22.4596 0.90625 17.6064 0.90625 11.7557C0.90625 5.26339 6.16809 0 12.6585 0C19.1489 0 24.4108 5.26339 24.4108 11.7557H24.4091Z" fill="black"/>
<path d="M5.67195 5.18506L11.0919 12.4335L5.63818 18.3271H6.86595L11.6411 13.1675L15.499 18.3271H19.6763L13.9517 10.6708L19.0283 5.18506H17.8005L13.4033 9.93694L9.85013 5.18506H5.67276H5.67195ZM7.47694 6.08947H9.39558L17.8697 17.4226H15.9511L7.47694 6.08947Z" fill="white"/>
</svg>
